<?xml version="1.0" encoding="utf-8"?><svg xml:space="preserve" viewBox="0 0 100 100" y="0px" x="0px" xmlns:xlink="http://www.w3.org/1999/xlink" xmlns="http://www.w3.org/2000/svg" id="Layer_1" version="1.1" width="200px" height="200px" style="width:100%;height:100%;background-size:initial;background-repeat-y:initial;background-repeat-x:initial;background-position-y:initial;background-position-x:initial;background-origin:initial;background-image:initial;background-color:rgb(255, 255, 255);background-clip:initial;background-attachment:initial;animation-play-state:paused" ><g class="ldl-scale" style="transform-origin:50% 50%;transform:rotate(0deg) scale(0.8, 0.8);animation-play-state:paused" ><g style="animation-play-state:paused" ><line y2="89" x2="18.96" y1="78.95" x1="21.94" stroke-miterlimit="10" stroke-linejoin="round" stroke-linecap="round" stroke-width="3.5" stroke="#323334" fill="none" style="stroke:rgb(50, 51, 52);animation-play-state:paused" ></line>
<line y2="89" x2="30.53" y1="78.95" x1="33.5" stroke-miterlimit="10" stroke-linejoin="round" stroke-linecap="round" stroke-width="3.5" stroke="#323334" fill="none" style="stroke:rgb(50, 51, 52);animation-play-state:paused" ></line>
<line y2="89" x2="42.09" y1="78.95" x1="45.07" stroke-miterlimit="10" stroke-linejoin="round" stroke-linecap="round" stroke-width="3.5" stroke="#323334" fill="none" style="stroke:rgb(50, 51, 52);animation-play-state:paused" ></line>
<line y2="89" x2="53.66" y1="78.95" x1="56.64" stroke-miterlimit="10" stroke-linejoin="round" stroke-linecap="round" stroke-width="3.5" stroke="#323334" fill="none" style="stroke:rgb(50, 51, 52);animation-play-state:paused" ></line>
<line y2="89" x2="65.22" y1="78.95" x1="68.2" stroke-miterlimit="10" stroke-linejoin="round" stroke-linecap="round" stroke-width="3.5" stroke="#323334" fill="none" style="stroke:rgb(50, 51, 52);animation-play-state:paused" ></line></g>
<path d="M19.47,48.16c-0.1-0.76-0.16-1.54-0.16-2.33c0-9.87,8-17.88,17.88-17.88c7.55,0,14,4.68,16.62,11.3c1.5-0.75,3.18-1.18,4.97-1.18 c5.7,0,10.4,4.29,11.05,9.82c5.28,1.32,9.19,6.08,9.19,11.77c0,6.59-5.26,11.94-11.8,12.12v0.02H23.36 c-6.71,0-12.14-5.44-12.14-12.14C11.22,54.31,14.68,49.78,19.47,48.16z" stroke-miterlimit="10" stroke-linejoin="round" stroke-linecap="round" stroke-width="3.5" stroke="#323334" fill="#A0C8D7" style="stroke:rgb(50, 51, 52);fill:rgb(160, 200, 215);animation-play-state:paused" ></path>
<path d="M81.75,39.32c-12.87,0-23.3-10.43-23.3-23.3c0-2.45,0.38-4.81,1.08-7.02c-9.43,2.98-16.27,11.8-16.27,22.22 c0,12.87,10.43,23.3,23.3,23.3c10.42,0,19.24-6.84,22.22-16.27C86.56,38.94,84.2,39.32,81.75,39.32z" stroke-miterlimit="10" stroke-linejoin="round" stroke-linecap="round" stroke-width="3.5" stroke="#323334" fill="#FEE1C5" style="stroke:rgb(50, 51, 52);fill:rgb(255, 219, 91);animation-play-state:paused" ></path>
<metadata xmlns:d="https://loading.io/stock/" style="animation-play-state:paused" ><d:name style="animation-play-state:paused" >weather</d:name>


<d:tags style="animation-play-state:paused" >weather,nature,sky,night,moon,rain,cloudy</d:tags>


<d:license style="animation-play-state:paused" >by</d:license>


<d:slug style="animation-play-state:paused" >aaof6t</d:slug></metadata></g><!-- generated by https://loading.io/ --></svg>